# xmcd CD database file generated by Grip 3.2.0
# 
# Track frame offsets:
#       150
#       37660
#       56668
#       83463
#       101275
#       124415
#       156680
#       168682
#       187238
#       214293
#       251518
#       302015
# 
# Disc length: 4347 seconds
# 
# Revision: 4
# Processed by: cddbd v1.5.1PL2 Copyright (c) Steve Scherf et al.
# Submitted via: Grip 3.2.0
# 
DISCID=a510f90c
DTITLE=Rod Piazza and The Mighty Flyers - Live at B.B. King's, Memphis
DYEAR=1994
DGENRE=Blues
TTITLE0=Sinister Woman
TTITLE1=Love and Money
TTITLE2=Murder in the 1st Degree
TTITLE3=Clap Your Hands
TTITLE4=California Fire Blues
TTITLE5=Diamonds at Her Feet
TTITLE6=Ju Ju Cocktail
TTITLE7=Down So Long
TTITLE8=The Singer
TTITLE9=Blue Hour
TTITLE10=Southern Lady
TTITLE11=They want Money
EXTD=YEAR: 1994
EXTT0=
EXTT1=
EXTT2=
EXTT3=
EXTT4=
EXTT5=
EXTT6=
EXTT7=
EXTT8=
EXTT9=
EXTT10=
EXTT11=
PLAYORDER=
